<svg width="12" height="16" viewBox="0 0 12 16" fill="none" xmlns="http://www.w3.org/2000/svg">
<path d="M8.50001 6.33333C8.50001 7.71405 7.38072 8.83333 6.00001 8.83333C4.61929 8.83333 3.50001 7.71405 3.50001 6.33333C3.50001 4.95262 4.61929 3.83333 6.00001 3.83333C7.38072 3.83333 8.50001 4.95262 8.50001 6.33333Z" fill="#40C6F3"/>
<path fill-rule="evenodd" clip-rule="evenodd" d="M0.166672 6.33333C0.166672 10.7083 6.00001 15.5 6.00001 15.5C6.00001 15.5 11.8333 10.7083 11.8333 6.33333C11.8333 3.10833 9.22501 0.5 6.00001 0.5C2.77501 0.5 0.166672 3.10833 0.166672 6.33333ZM1.83334 6.33333C1.83334 4.02881 3.69548 2.16667 6.00001 2.16667C8.30453 2.16667 10.1667 4.02881 10.1667 6.33333C10.1667 7.88391 9.07026 9.77468 7.63787 11.4884C7.0595 12.1804 6.4777 12.7835 6 13.2478C5.52231 12.7835 4.94051 12.1804 4.36214 11.4884C2.92975 9.77468 1.83334 7.88391 1.83334 6.33333Z" fill="#40C6F3"/>
</svg>
