<svg width="17" height="17" viewBox="0 0 17 17" fill="none" xmlns="http://www.w3.org/2000/svg">
<path d="M12.7558 9.24421C12.43 8.91838 11.9033 8.91838 11.5775 9.24421L10.2492 10.5725C9.63332 10.3892 8.48415 9.97255 7.75582 9.24421C7.02748 8.51588 6.61082 7.36671 6.42748 6.75088L7.75582 5.42254C8.08165 5.09671 8.08165 4.57005 7.75582 4.24421L4.42248 0.910879C4.09665 0.585046 3.56998 0.585046 3.24415 0.910879L0.98415 3.17088C0.667483 3.48755 0.48915 3.92255 0.495816 4.36671C0.514983 5.55338 0.82915 9.67505 4.07748 12.9234C7.32582 16.1717 11.4475 16.485 12.635 16.505C12.6391 16.505 12.6542 16.505 12.6583 16.505C13.0983 16.505 13.5142 16.3317 13.8292 16.0167L16.0892 13.7567C16.415 13.4309 16.415 12.9042 16.0892 12.5784L12.7558 9.24421ZM12.65 14.8375C11.61 14.82 8.05165 14.5409 5.25582 11.7442C2.45082 8.93921 2.17915 5.36838 2.16248 4.34921L3.83332 2.67838L5.98832 4.83338L4.91082 5.91088C4.71165 6.10921 4.62665 6.39588 4.68415 6.67088C4.70415 6.76671 5.19332 9.03921 6.57665 10.4225C7.95998 11.8059 10.2325 12.295 10.3283 12.315C10.6058 12.3742 10.89 12.2884 11.0883 12.0892L12.1666 11.0117L14.3216 13.1667L12.65 14.8375Z" fill="#40C6F3"/>
</svg>
