<svg width="40" height="40" viewBox="0 0 40 40" fill="none" xmlns="http://www.w3.org/2000/svg">
<path d="M32 18.5599C32 16.8799 30.64 15.9999 28.8 15.9999H23.44C23.84 14.5599 24 13.1999 24 11.9999C24 7.3599 22.72 6.3999 21.6 6.3999C20.88 6.3999 20.32 6.4799 19.6 6.8799C19.36 7.0399 19.28 7.1999 19.2 7.4399L18.4 11.7599C17.52 13.9999 15.36 15.9999 13.6 17.3599V28.7999C14.24 28.7999 14.88 29.1199 15.68 29.5199C16.56 29.9199 17.44 30.3999 18.4 30.3999H26C27.6 30.3999 28.8 29.1199 28.8 27.9999C28.8 27.7599 28.8 27.5999 28.72 27.4399C29.68 27.0399 30.4 26.2399 30.4 25.1999C30.4 24.7199 30.32 24.3199 30.16 23.9199C30.8 23.5199 31.36 22.7999 31.36 21.9999C31.36 21.5199 31.12 21.0399 30.88 20.6399C31.52 20.1599 32 19.3599 32 18.5599ZM30.32 18.5599C30.32 19.5999 29.28 19.6799 29.12 20.1599C28.96 20.7199 29.76 20.8799 29.76 21.8399C29.76 22.7999 28.56 22.7999 28.4 23.3599C28.24 23.9999 28.8 24.1599 28.8 25.1199V25.2799C28.64 26.0799 27.44 26.1599 27.2 26.4799C26.96 26.8799 27.2 27.0399 27.2 27.9199C27.2 28.3999 26.64 28.7199 26 28.7199H18.4C17.76 28.7199 17.12 28.3999 16.32 27.9999C15.68 27.6799 15.04 27.3599 14.4 27.1999V18.7999C16.4 17.2799 18.96 15.0399 19.92 12.2399V12.0799L20.64 8.0799C20.96 7.9999 21.2 7.9999 21.6 7.9999C21.76 7.9999 22.4 8.9599 22.4 11.9999C22.4 13.1999 22.16 14.4799 21.76 15.9999H21.6C21.12 15.9999 20.8 16.3199 20.8 16.7999C20.8 17.2799 21.12 17.5999 21.6 17.5999H28.8C29.6 17.5999 30.32 17.9999 30.32 18.5599Z" fill="#82B440"/>
<path d="M12.8 30.4H8.00002C7.12002 30.4 6.40002 29.68 6.40002 28.8V17.6C6.40002 16.72 7.12002 16 8.00002 16H12.8C13.68 16 14.4 16.72 14.4 17.6V28.8C14.4 29.68 13.68 30.4 12.8 30.4ZM8.00002 17.6V28.8H12.8V17.6H8.00002Z" fill="#82B440"/>
</svg>
