<?xml version="1.0" encoding="utf-8"?>
<!-- Generator: Adobe Illustrator 24.0.0, SVG Export Plug-In . SVG Version: 6.00 Build 0)  -->
<svg version="1.1" id="Layer_1" xmlns="http://www.w3.org/2000/svg" xmlns:xlink="http://www.w3.org/1999/xlink" x="0px" y="0px"
	 viewBox="0 0 1920 196.6" style="enable-background:new 0 0 1920 196.6;" xml:space="preserve">
<style type="text/css">
	.st0{fill:#C42323;}
	.st1{fill:#CE2121;}
	.st2{fill:#A81411;}
</style>
<path class="st0" d="M-0.2,188.2c40.6,4.9,84.8,8.2,133.9,8.2c5.1,0,10.2,0,15.2-0.1c5.1,0.1,10.1,0.1,15.2,0.1
	c179.8,0,294-44.8,402.5-44.8c108.5,0,222.7,44.8,402.5,44.8c5.1,0,10.2,0,15.2-0.1c5,0.1,10.1,0.1,15.2,0.1
	c179.8,0,294-44.8,402.5-44.8c108.5,0,222.7,44.8,402.5,44.8c5.1,0,10.2,0,15.2-0.1c5.1,0.1,10.1,0.1,15.2,0.1
	c30.1,0,58.3-1.3,84.9-3.4V8.4H-0.2V188.2z"/>
<path class="st1" d="M-0.2,182.5c200.8-7,334.7-56,462.4-56c137.5,0,282.3,56.8,510.2,56.8c6.5,0,12.9-0.1,19.3-0.1
	c6.4,0.1,12.8,0.1,19.3,0.1c227.9,0,372.6-56.8,510.2-56.8c113.7,0,232.4,38.8,398.9,52.3V23.2H-0.2V182.5z"/>
<path class="st2" d="M-0.2,171.3c40.6,6.3,84.8,10.7,133.9,10.7c5.1,0,10.2-0.1,15.2-0.1c5.1,0.1,10.1,0.1,15.2,0.1
	c179.8,0,294-58.5,402.5-58.5c108.5,0,222.7,58.5,402.5,58.5c5.1,0,10.2-0.1,15.2-0.1c5,0.1,10.1,0.1,15.2,0.1
	c179.8,0,294-58.5,402.5-58.5c108.5,0,222.7,58.5,402.5,58.5c5.1,0,10.2-0.1,15.2-0.1c5.1,0.1,10.1,0.1,15.2,0.1
	c30.1,0,58.3-1.7,84.9-4.4V0H-0.2V171.3z"/>
</svg>
