<svg width="24" height="24" viewBox="0 0 24 24" fill="none" xmlns="http://www.w3.org/2000/svg">
<path d="M19.719 19.2481L19.2229 19.1861L19.719 19.2481ZM20.7892 10.6861L21.2854 10.7481L20.7892 10.6861ZM3.78487 19.3101L2.71462 10.7481L3.7069 10.624L4.77715 19.1861L3.78487 19.3101ZM21.2854 10.7481L20.2151 19.3101L19.2229 19.1861L20.2931 10.624L21.2854 10.7481ZM17.7344 21.5H6.26556V20.5L17.7344 20.5V21.5ZM19.3008 9.5L4.69917 9.5V8.5L19.3008 8.5V9.5ZM20.2151 19.3101C20.0587 20.5612 18.9952 21.5 17.7344 21.5V20.5C18.4909 20.5 19.129 19.9367 19.2229 19.1861L20.2151 19.3101ZM20.2931 10.624C20.3677 10.0272 19.9023 9.5 19.3008 9.5V8.5C20.5038 8.5 21.4346 9.55436 21.2854 10.7481L20.2931 10.624ZM2.71462 10.7481C2.5654 9.55436 3.49618 8.5 4.69917 8.5V9.5C4.09768 9.5 3.63229 10.0272 3.7069 10.624L2.71462 10.7481ZM4.77715 19.1861C4.87098 19.9367 5.50908 20.5 6.26556 20.5V21.5C5.00476 21.5 3.94125 20.5612 3.78487 19.3101L4.77715 19.1861Z" fill="white"/>
<path d="M6 9L5.62037 8.6746L4.91289 9.5H6V9ZM18 9V9.5H19.0871L18.3796 8.6746L18 9ZM10.1019 3.4462L5.62037 8.6746L6.37963 9.3254L10.8611 4.09699L10.1019 3.4462ZM6 9.5H18V8.5H6V9.5ZM18.3796 8.6746L13.8981 3.4462L13.1389 4.09699L17.6204 9.3254L18.3796 8.6746ZM10.8611 4.09699C11.4598 3.39858 12.5402 3.39858 13.1389 4.09699L13.8981 3.4462C12.9004 2.28217 11.0996 2.28217 10.1019 3.4462L10.8611 4.09699Z" fill="white"/>
<path d="M7.5 12.5V17.5" stroke="white" stroke-linecap="round"/>
<path d="M12 12.5V17.5" stroke="white" stroke-linecap="round"/>
<path d="M16.5 12.5V17.5" stroke="white" stroke-linecap="round"/>
</svg>
