<svg width="20" height="20" viewBox="0 0 20 20" fill="none" xmlns="http://www.w3.org/2000/svg">
<path fill-rule="evenodd" clip-rule="evenodd" d="M11.9647 3.23857C11.0919 1.72549 8.90811 1.72549 8.03532 3.23857C7.74836 3.73605 7.16288 3.97856 6.60819 3.8297C4.92113 3.37695 3.37698 4.9211 3.82973 6.60816C3.97859 7.16284 3.73608 7.74833 3.2386 8.03529C1.72552 8.90808 1.72552 11.0918 3.2386 11.9646C3.73608 12.2516 3.97859 12.8371 3.82973 13.3917C3.37698 15.0788 4.92113 16.623 6.60819 16.1702C7.16288 16.0213 7.74836 16.2639 8.03532 16.7613C8.90811 18.2744 11.0919 18.2744 11.9647 16.7613C12.2516 16.2639 12.8371 16.0213 13.3918 16.1702C15.0788 16.623 16.623 15.0788 16.1702 13.3917C16.0214 12.8371 16.2639 12.2516 16.7614 11.9646C18.2744 11.0918 18.2744 8.90808 16.7614 8.03529C16.2639 7.74833 16.0214 7.16284 16.1702 6.60816C16.623 4.92109 15.0788 3.37695 13.3918 3.8297C12.8371 3.97856 12.2516 3.73605 11.9647 3.23857ZM8.90154 3.73823C9.38952 2.89227 10.6105 2.89227 11.0984 3.73823C11.6117 4.62802 12.6589 5.06178 13.651 4.79553C14.5942 4.5424 15.4575 5.40573 15.2044 6.34897C14.9382 7.34107 15.3719 8.38825 16.2617 8.90151C17.1077 9.38949 17.1077 10.6104 16.2617 11.0984C15.3719 11.6117 14.9382 12.6588 15.2044 13.6509C15.4575 14.5942 14.5942 15.4575 13.651 15.2044C12.6589 14.9381 11.6117 15.3719 11.0984 16.2617C10.6105 17.1076 9.38952 17.1076 8.90154 16.2617C8.38828 15.3719 7.3411 14.9381 6.349 15.2044C5.40576 15.4575 4.54243 14.5942 4.79556 13.6509C5.06181 12.6588 4.62805 11.6117 3.73826 11.0984C2.8923 10.6104 2.8923 9.38949 3.73826 8.90151C4.62805 8.38825 5.06181 7.34107 4.79556 6.34897C4.54243 5.40573 5.40576 4.5424 6.349 4.79553C7.3411 5.06178 8.38828 4.62802 8.90154 3.73823ZM8.33332 9.16663C8.79356 9.16663 9.16666 8.79353 9.16666 8.33329C9.16666 7.87306 8.79356 7.49996 8.33332 7.49996C7.87309 7.49996 7.49999 7.87306 7.49999 8.33329C7.49999 8.79353 7.87309 9.16663 8.33332 9.16663ZM12.5 11.6666C12.5 12.1269 12.1269 12.5 11.6667 12.5C11.2064 12.5 10.8333 12.1269 10.8333 11.6666C10.8333 11.2064 11.2064 10.8333 11.6667 10.8333C12.1269 10.8333 12.5 11.2064 12.5 11.6666ZM12.8535 7.85351C13.0488 7.65825 13.0488 7.34167 12.8535 7.1464C12.6583 6.95114 12.3417 6.95114 12.1464 7.1464L7.14644 12.1464C6.95117 12.3417 6.95117 12.6582 7.14644 12.8535C7.3417 13.0488 7.65828 13.0488 7.85354 12.8535L12.8535 7.85351Z" fill="#1B1B1B"/>
</svg>
