<svg width="49" height="49" viewBox="0 0 49 49" fill="none" xmlns="http://www.w3.org/2000/svg">
<g id="Group">
<g id="Group_2">
<path id="Vector" d="M24.0089 48.7697C23.7089 48.7697 23.4089 48.5697 23.2089 48.3697L0.208898 14.3697C0.00889841 14.0697 0.00889827 13.6697 0.108898 13.3697C0.308898 12.9697 0.608898 12.7697 1.0089 12.7697H47.0089C47.4089 12.7697 47.7089 12.9697 47.9089 13.2697C48.1089 13.5697 48.1089 13.9697 47.8089 14.2697L24.8089 48.2697C24.6089 48.5697 24.3089 48.7697 24.0089 48.7697ZM2.9089 14.7697L24.0089 45.9697L45.1089 14.7697H2.9089Z" fill="white"/>
</g>
<g id="Group_3">
<path id="Vector_2" d="M24.009 48.7697C23.509 48.7697 23.109 48.4697 23.009 47.9697L15.009 13.9697C14.909 13.6697 15.009 13.3697 15.209 13.0697C15.409 12.8697 15.709 12.6697 16.009 12.6697H32.009C32.309 12.6697 32.609 12.7697 32.809 13.0697C33.009 13.2697 33.109 13.6697 33.009 13.8697L25.009 47.8697C24.909 48.4697 24.509 48.7697 24.009 48.7697ZM17.309 14.7697L24.009 43.3697L30.709 14.7697H17.309Z" fill="white"/>
</g>
<g id="Group_4">
<path id="Vector_3" d="M47.009 14.7697H1.00902C0.609017 14.7697 0.309017 14.5697 0.109017 14.1697C-0.0909831 13.7697 0.00901709 13.3697 0.209017 13.0697L10.209 1.06969C10.409 0.869691 10.709 0.769691 11.009 0.769691H37.009C37.309 0.769691 37.609 0.869692 37.809 1.16969L47.809 13.1697C48.009 13.4697 48.109 13.8697 47.909 14.2697C47.709 14.5697 47.409 14.7697 47.009 14.7697ZM3.10902 12.7697H44.809L36.509 2.76969H11.509L3.10902 12.7697Z" fill="white"/>
</g>
<g id="Group_5">
<path id="Vector_4" d="M16.0091 14.7697C15.6091 14.7697 15.2091 14.5697 15.1091 14.1697L10.1091 2.16969C9.90911 1.66969 10.1091 1.06969 10.6091 0.869693C11.1091 0.669693 11.7091 0.869693 11.9091 1.36969L16.9091 13.3697C17.1091 13.8697 16.9091 14.4697 16.4091 14.6697C16.3091 14.7697 16.1091 14.7697 16.0091 14.7697Z" fill="white"/>
</g>
<g id="Group_6">
<path id="Vector_5" d="M32.009 14.7697C31.909 14.7697 31.709 14.7697 31.609 14.6697C31.109 14.4697 30.809 13.8697 31.109 13.3697L36.109 1.36969C36.309 0.869694 36.909 0.569694 37.409 0.869694C37.909 1.06969 38.209 1.66969 37.909 2.16969L32.909 14.1697C32.809 14.5697 32.409 14.7697 32.009 14.7697Z" fill="white"/>
</g>
<g id="Group_7">
<path id="Vector_6" d="M32.2089 14.7697C31.9089 14.7697 31.6089 14.6697 31.4089 14.3697L24.0089 4.1697L16.6089 14.2697C16.3089 14.6697 15.6089 14.7697 15.2089 14.4697C14.8089 14.1697 14.7089 13.4697 15.0089 13.0697L23.2089 1.8697C23.6089 1.3697 24.4089 1.3697 24.8089 1.8697L33.0089 13.1697C33.3089 13.5697 33.2089 14.2697 32.8089 14.5697C32.7089 14.6697 32.4089 14.7697 32.2089 14.7697Z" fill="white"/>
</g>
</g>
</svg>
