<svg width="13" height="13" viewBox="0 0 13 13" fill="none" xmlns="http://www.w3.org/2000/svg">
<path d="M10.1991 7.95012C10.0372 8.107 9.9628 8.33387 9.99968 8.55637L10.5553 11.6314C10.6022 11.892 10.4922 12.1557 10.2741 12.3064C10.0603 12.4626 9.77593 12.4814 9.5428 12.3564L6.77468 10.9126C6.67843 10.8614 6.57155 10.8339 6.46218 10.8307H6.2928C6.23405 10.8395 6.17655 10.8582 6.12405 10.887L3.3553 12.3376C3.21843 12.4064 3.06343 12.4307 2.91155 12.4064C2.54155 12.3364 2.29468 11.9839 2.3553 11.612L2.91155 8.537C2.94843 8.31262 2.87405 8.0845 2.71218 7.92512L0.455303 5.73762C0.266553 5.5545 0.200928 5.2795 0.287178 5.03137C0.370928 4.78387 0.584678 4.60325 0.842803 4.56262L3.94905 4.112C4.1853 4.08762 4.3928 3.94387 4.49905 3.73137L5.8678 0.925122C5.9003 0.862622 5.94218 0.805122 5.9928 0.756372L6.04905 0.712622C6.07843 0.680122 6.11218 0.653247 6.14968 0.631372L6.2178 0.606372L6.32405 0.562622H6.58718C6.82218 0.586997 7.02905 0.727622 7.13718 0.937622L8.52405 3.73137C8.62405 3.93575 8.81843 4.07762 9.0428 4.112L12.1491 4.56262C12.4116 4.60012 12.6309 4.78137 12.7178 5.03137C12.7997 5.282 12.7291 5.557 12.5366 5.73762L10.1991 7.95012Z" fill="#FCB025"/>
</svg>
